<svg width="128" height="128" viewBox="0 0 128 128" fill="none" xmlns="http://www.w3.org/2000/svg">
<g clip-path="url(#clip0_2410_839)">
<rect width="128" height="128" rx="64" fill="#F9DE4B"/>
<path d="M11.3438 100H-9.75L25.9688 28H52.6875L64.5 100H43.4063L36.375 47.8281H35.8125L11.3438 100ZM12.1875 71.5938H51.8437L49.3125 86.2187H9.65625L12.1875 71.5938ZM133.742 55H114.195C114.336 53.3359 114.242 51.8359 113.914 50.5C113.586 49.1641 113.024 48.0156 112.227 47.0547C111.43 46.0703 110.387 45.3203 109.098 44.8047C107.809 44.2891 106.274 44.0312 104.492 44.0312C101.07 44.0312 98.0119 44.8867 95.3166 46.5977C92.6212 48.2852 90.383 50.7109 88.6017 53.875C86.8205 57.0156 85.5548 60.7656 84.8048 65.125C84.1486 69.3437 84.1252 72.8477 84.7345 75.6367C85.3673 78.4258 86.5978 80.5117 88.4259 81.8945C90.2775 83.2773 92.6798 83.9687 95.633 83.9687C97.6017 83.9687 99.4064 83.7344 101.047 83.2656C102.711 82.7969 104.188 82.1289 105.477 81.2617C106.789 80.3711 107.902 79.3164 108.817 78.0977C109.754 76.8555 110.469 75.4844 110.961 73.9844H130.649C129.899 77.0312 128.563 80.1484 126.641 83.3359C124.719 86.5 122.235 89.418 119.188 92.0898C116.141 94.7383 112.555 96.8828 108.43 98.5234C104.305 100.164 99.6642 100.984 94.508 100.984C87.758 100.984 81.9337 99.5078 77.0353 96.5547C72.1603 93.6016 68.6212 89.2891 66.4181 83.6172C64.2384 77.9453 63.8048 71.0312 65.1173 62.875C66.4298 55 69.0197 48.4023 72.8869 43.082C76.7541 37.7617 81.4533 33.7539 86.9845 31.0586C92.5158 28.3633 98.3986 27.0156 104.633 27.0156C109.344 27.0156 113.563 27.6367 117.289 28.8789C121.039 30.1211 124.192 31.9375 126.746 34.3281C129.324 36.6953 131.223 39.6133 132.442 43.082C133.66 46.5508 134.094 50.5234 133.742 55Z" fill="black"/>
</g>
<defs>
<clipPath id="clip0_2410_839">
<rect width="128" height="128" rx="64" fill="white"/>
</clipPath>
</defs>
</svg>
